<?xml version="1.0" encoding="utf-8"?>
<!-- Generator: Adobe Illustrator 23.0.0, SVG Export Plug-In . SVG Version: 6.00 Build 0)  -->
<svg version="1.1" id="레이어_1" xmlns="http://www.w3.org/2000/svg" xmlns:xlink="http://www.w3.org/1999/xlink" x="0px"
	 y="0px" viewBox="0 0 8192 656.2" style="enable-background:new 0 0 8192 656.2;" xml:space="preserve">
<style type="text/css">
	.st0{fill-rule:evenodd;clip-rule:evenodd;fill:#F6F6F6;}
</style>
<path class="st0" d="M1365.6,247.8c-265.5,0-349.8-243.1-692.3-242.5C332,5.3,246.6,247.8,0,247.8v233.4h1365.6
	C1365.6,481.2,1365.6,335.7,1365.6,247.8z"/>
<path class="st0" d="M2730.7,247.8c-265.4,0-349.8-243.1-692.2-242.5c-341.4,0-426.7,242.5-673.4,242.5v233.4h1365.6
	C2730.7,481.2,2730.7,335.7,2730.7,247.8z"/>
<path class="st0" d="M4095.6,247.8c-265.4,0-349.8-243.1-692.2-242.5c-341.4,0-426.7,242.5-673.4,242.5v233.4h1365.6
	C4095.6,481.2,4095.6,335.7,4095.6,247.8z"/>
<path class="st0" d="M5460.7,247.8c-265.4,0-349.8-243.1-692.2-242.5c-341.4,0-426.7,242.5-673.4,242.5v233.4h1365.6
	C5460.7,481.2,5460.7,335.7,5460.7,247.8z"/>
<path class="st0" d="M6827.2,247.8c-265.4,0-349.8-243.1-692.2-242.5c-341.4,0-426.7,242.5-673.4,242.5v233.4h1365.6
	C6827.2,481.2,6827.2,335.7,6827.2,247.8z"/>
<path class="st0" d="M8191.9,248.3c-265.4,0-349.8-243.1-692.2-242.5c-341.4,0-426.7,242.5-673.4,242.5v233.4H8192
	C8191.9,481.7,8191.9,336.2,8191.9,248.3z"/>
<rect y="481.2" class="st0" width="8192" height="175"/>
</svg>
